<svg xmlns="http://www.w3.org/2000/svg" viewBox="252.1 369.3 438.1 56.5" role="img" aria-label="GEKARD — инженерные дверные решения"><path d="M297.02 385.27L291.75 385.27C291.75 380.49 287.87 376.61 283.09 376.61C278.30 376.61 274.42 380.49 274.42 385.27C274.42 389.27 277.14 392.50 280.45 393.52L280.45 385.27L285.72 385.27L285.72 393.56C285.72 396.46 283.35 398.83 280.45 398.83C276.87 398.83 269.15 394.03 269.15 385.27C269.15 377.59 275.40 371.34 283.09 371.34C290.77 371.34 297.02 377.59 297.02 385.27" fill="#FAB432"/><path d="M289.16 419.95L291.80 415.39C295.94 417.78 301.24 416.36 303.63 412.22C306.02 408.07 304.60 402.78 300.46 400.38C297.00 398.39 292.84 399.12 290.30 401.48L297.45 405.60L294.81 410.17L287.64 406.03C285.12 404.58 284.26 401.33 285.70 398.82C287.50 395.72 295.51 391.44 303.10 395.82C309.75 399.66 312.04 408.20 308.20 414.85C304.36 421.51 295.82 423.80 289.16 419.95" fill="#FAB432"/><path d="M263.08 395.80L265.72 400.37C261.58 402.76 260.16 408.06 262.55 412.20C264.94 416.34 270.24 417.76 274.38 415.37C277.84 413.38 279.29 409.41 278.51 406.03L271.37 410.15L268.73 405.59L275.91 401.44C278.42 399.99 281.66 400.86 283.11 403.37C284.90 406.48 284.61 415.56 277.02 419.94C270.36 423.78 261.82 421.49 257.98 414.84C254.14 408.18 256.43 399.64 263.08 395.80" fill="#FAB432"/><path d="M366.22 408.25L366.22 402.98L382.79 402.98L382.79 397.70L366.22 397.70L366.22 392.43L384.30 392.43L384.30 387.16L360.19 387.16L360.19 413.52L384.68 413.52L384.68 408.25L366.22 408.25" fill="#FAB432"/><path d="M408.78 413.52L417.07 413.52L403.32 399.77L415.94 387.16L408.03 387.16L397.48 397.70L394.09 397.70L394.09 387.16L388.07 387.16L388.07 397.70L388.07 402.98L388.07 413.52L394.09 413.52L394.09 402.98L398.24 402.98L408.78 413.52" fill="#FAB432"/><path d="M340.23 397.70L340.23 402.98L351.08 402.98C350.00 406.05 347.07 408.25 343.62 408.25L338.04 408.25C333.68 408.25 330.06 404.68 330.06 400.32C330.07 395.96 333.61 392.43 337.97 392.43L350.03 392.43L350.03 387.16L337.31 387.16C330.01 387.16 323.99 393.13 324.04 400.42C324.08 407.67 329.97 413.52 337.22 413.52L344.00 413.52C351.28 413.52 357.18 407.62 357.18 400.34C357.18 398.88 356.00 397.70 354.55 397.70L340.23 397.70" fill="#FAB432"/><path d="M469.04 413.52L477.33 413.52L466.78 402.98L468.29 402.98C472.66 402.98 476.20 399.43 476.20 395.07C476.20 390.70 472.66 387.16 468.29 387.16L448.71 387.16L448.71 413.52L454.73 413.52L454.73 402.98L458.50 402.98L469.04 413.52M454.73 392.43L467.54 392.43C468.99 392.43 470.17 393.61 470.17 395.07C470.17 396.52 468.99 397.70 467.54 397.70L454.73 397.70L454.73 392.43" fill="#FAB432"/><path d="M498.05 387.16L480.34 387.16L480.34 413.52L498.05 413.52C505.33 413.52 511.23 407.62 511.23 400.34C511.23 393.06 505.33 387.16 498.05 387.16M497.29 408.25L486.37 408.25L486.37 392.43L497.29 392.43C501.66 392.43 505.20 395.97 505.20 400.34C505.20 404.71 501.66 408.25 497.29 408.25" fill="#FAB432"/><path d="M440.80 413.52L447.20 413.52L435.15 387.16L427.24 387.16L415.18 413.52L421.21 413.52L423.55 408.25L438.46 408.25L440.80 413.52M425.88 402.98L431.00 391.41L436.13 402.98L425.88 402.98" fill="#FAB432"/><path d="M538.78 409.28L538.95 409.28C539.75 409.28 540.12 408.86 540.19 407.95L540.72 402.02L547.01 402.02L547.01 409.28L548.25 409.28L548.25 413.00L546.48 413.00L546.48 410.88L540.55 410.88L540.55 413.00L538.78 413.00L538.78 409.28M545.24 409.28L545.24 403.61L542.32 403.61L541.93 408.04C541.88 408.48 541.77 408.80 541.65 409.00C541.57 409.12 541.50 409.21 541.43 409.28L545.24 409.28" fill="#EAEAEA"/><path d="M549.76 402.02L554.54 402.02C556.24 402.02 557.20 402.99 557.20 404.41C557.20 405.10 556.93 405.54 556.67 405.84C556.51 406.02 556.33 406.16 556.14 406.27L556.14 406.36C556.37 406.46 556.56 406.61 556.76 406.78C557.06 407.12 557.38 407.60 557.38 408.40C557.38 409.72 556.22 410.88 554.72 410.88L549.76 410.88L549.76 402.02M554.28 405.65C554.98 405.65 555.43 405.21 555.43 404.59C555.43 403.97 554.98 403.52 554.28 403.52L551.53 403.52L551.53 405.65L554.28 405.65M554.36 409.37C555.07 409.37 555.60 408.84 555.60 408.22C555.60 407.60 555.07 407.07 554.36 407.07L551.53 407.07L551.53 409.37L554.36 409.37" fill="#EAEAEA"/><path d="M567.21 408.31C566.78 409.46 565.52 411.05 563.22 411.05C560.65 411.05 558.79 409.19 558.79 406.45C558.79 403.70 560.65 401.84 563.22 401.84C565.61 401.84 567.47 403.70 567.47 406.18C567.47 406.45 567.44 406.66 567.42 406.82L567.38 407.07L560.56 407.07C560.76 408.57 561.80 409.55 563.22 409.55C564.28 409.55 565.06 408.93 565.35 408.31L567.21 408.31M565.79 405.74C565.59 404.32 564.64 403.35 563.22 403.35C561.71 403.35 560.83 404.32 560.56 405.74L565.79 405.74" fill="#EAEAEA"/><path d="M569.33 402.02L570.93 402.02L571.10 403.08L571.19 403.08C571.49 402.74 572.22 401.84 573.94 401.84C576.26 401.84 578.01 403.61 578.01 406.45C578.01 409.28 576.26 411.05 573.94 411.05C572.24 411.05 571.46 410.17 571.19 409.81L571.10 409.81L571.10 414.42L569.33 414.42L569.33 402.02M576.24 406.45C576.24 404.60 575.09 403.44 573.67 403.44C572.26 403.44 571.10 404.60 571.10 406.45C571.10 408.29 572.26 409.46 573.67 409.46C575.09 409.46 576.24 408.29 576.24 406.45" fill="#EAEAEA"/><path d="M579.87 402.02L581.64 402.02L581.64 405.56L585.81 405.56L585.81 402.02L587.58 402.02L587.58 410.88L585.81 410.88L585.81 407.24L581.64 407.24L581.64 410.88L579.87 410.88L579.87 402.02" fill="#EAEAEA"/><path d="M589.88 402.02L591.65 402.02L591.65 404.85L593.95 404.85C595.81 404.85 597.05 406.09 597.05 407.86C597.05 409.64 595.81 410.88 593.95 410.88L589.88 410.88L589.88 402.02M593.78 409.37C594.68 409.37 595.28 408.77 595.28 407.86C595.28 406.96 594.68 406.36 593.78 406.36L591.65 406.36L591.65 409.37L593.78 409.37M598.21 402.02H599.98V410.88H598.21Z" fill="#EAEAEA"/><path d="M610.25 408.31C609.83 409.46 608.57 411.05 606.27 411.05C603.70 411.05 601.84 409.19 601.84 406.45C601.84 403.70 603.70 401.84 606.27 401.84C608.66 401.84 610.52 403.70 610.52 406.18C610.52 406.45 610.48 406.66 610.46 406.82L610.43 407.07L603.61 407.07C603.80 408.57 604.85 409.55 606.27 409.55C607.33 409.55 608.11 408.93 608.39 408.31L610.25 408.31M608.83 405.74C608.64 404.32 607.68 403.35 606.27 403.35C604.76 403.35 603.87 404.32 603.61 405.74L608.83 405.74" fill="#EAEAEA"/><path d="M616.54 402.02L618.13 402.02L618.31 403.08L618.40 403.08C618.70 402.74 619.43 401.84 621.14 401.84C623.46 401.84 625.22 403.61 625.22 406.45C625.22 409.28 623.46 411.05 621.14 411.05C619.44 411.05 618.66 410.17 618.40 409.81L618.31 409.81L618.31 414.42L616.54 414.42L616.54 402.02M623.45 406.45C623.45 404.60 622.30 403.44 620.88 403.44C619.46 403.44 618.31 404.60 618.31 406.45C618.31 408.29 619.46 409.46 620.88 409.46C622.30 409.46 623.45 408.29 623.45 406.45" fill="#EAEAEA"/><path d="M635.05 408.31C634.62 409.46 633.37 411.05 631.06 411.05C628.49 411.05 626.64 409.19 626.64 406.45C626.64 403.70 628.49 401.84 631.06 401.84C633.46 401.84 635.32 403.70 635.32 406.18C635.32 406.45 635.28 406.66 635.26 406.82L635.23 407.07L628.41 407.07C628.60 408.57 629.65 409.55 631.06 409.55C632.13 409.55 632.91 408.93 633.19 408.31L635.05 408.31M633.63 405.74C633.44 404.32 632.48 403.35 631.06 403.35C629.56 403.35 628.67 404.32 628.41 405.74L633.63 405.74" fill="#EAEAEA"/><path d="M637.18 402.02L638.95 402.02L638.95 409.28L642.14 409.28L642.14 402.02L643.91 402.02L643.91 409.28L647.10 409.28L647.10 402.02L648.87 402.02L648.87 410.88L637.18 410.88L637.18 402.02" fill="#EAEAEA"/><path d="M659.14 408.31C658.72 409.46 657.46 411.05 655.15 411.05C652.59 411.05 650.73 409.19 650.73 406.45C650.73 403.70 652.59 401.84 655.15 401.84C657.55 401.84 659.41 403.70 659.41 406.18C659.41 406.45 659.37 406.66 659.35 406.82L659.32 407.07L652.50 407.07C652.69 408.57 653.74 409.55 655.15 409.55C656.22 409.55 657.00 408.93 657.28 408.31L659.14 408.31M657.72 405.74C657.53 404.32 656.57 403.35 655.15 403.35C653.65 403.35 652.76 404.32 652.50 405.74L657.72 405.74" fill="#EAEAEA"/><path d="M661.27 402.02L663.04 402.02L663.04 405.56L667.20 405.56L667.20 402.02L668.97 402.02L668.97 410.88L667.20 410.88L667.20 407.24L663.04 407.24L663.04 410.88L661.27 410.88L661.27 402.02" fill="#EAEAEA"/><path d="M671.27 402.02L673.05 402.02L673.05 408.40L673.40 408.40L676.41 402.02L678.98 402.02L678.98 410.88L677.21 410.88L677.21 404.50L676.85 404.50L673.84 410.88L671.27 410.88L671.27 402.02" fill="#EAEAEA"/><path d="M683.67 407.69C682.19 407.69 680.75 406.55 680.75 404.85C680.75 403.26 681.99 402.02 683.85 402.02L688.28 402.02L688.28 410.88L686.51 410.88L686.51 407.69L685.80 407.69L682.70 410.88L680.57 410.88L683.67 407.69M686.51 406.27L686.51 403.44L684.03 403.44C683.12 403.44 682.52 404.06 682.52 404.85C682.52 405.65 683.12 406.27 684.03 406.27L686.51 406.27" fill="#EAEAEA"/><path d="M550.24 386.44L552.01 386.44L552.01 389.98L556.17 389.98L556.17 386.44L557.94 386.44L557.94 395.29L556.17 395.29L556.17 391.66L552.01 391.66L552.01 395.29L550.24 395.29L550.24 386.44" fill="#EAEAEA"/><path d="M562.46 390.78L559.27 386.44L561.31 386.44L564.23 390.51L564.23 386.44L566.00 386.44L566.00 390.51L568.93 386.44L570.96 386.44L567.77 390.78L571.14 395.29L569.10 395.29L566.00 390.95L566.00 395.29L564.23 395.29L564.23 390.95L561.13 395.29L559.09 395.29L562.46 390.78" fill="#EAEAEA"/><path d="M580.09 392.73C579.66 393.88 578.40 395.47 576.10 395.47C573.53 395.47 571.67 393.61 571.67 390.87C571.67 388.12 573.53 386.26 576.10 386.26C578.49 386.26 580.35 388.12 580.35 390.60C580.35 390.87 580.32 391.08 580.30 391.24L580.26 391.49L573.44 391.49C573.64 392.99 574.68 393.97 576.10 393.97C577.16 393.97 577.94 393.35 578.23 392.73L580.09 392.73M578.67 390.16C578.47 388.74 577.52 387.77 576.10 387.77C574.59 387.77 573.71 388.74 573.44 390.16L578.67 390.16" fill="#EAEAEA"/><path d="M582.21 386.44L583.98 386.44L583.98 389.98L588.14 389.98L588.14 386.44L589.92 386.44L589.92 395.29L588.14 395.29L588.14 391.66L583.98 391.66L583.98 395.29L582.21 395.29L582.21 386.44" fill="#EAEAEA"/><path d="M600.19 392.73C599.77 393.88 598.51 395.47 596.20 395.47C593.64 395.47 591.78 393.61 591.78 390.87C591.78 388.12 593.64 386.26 596.20 386.26C598.60 386.26 600.46 388.12 600.46 390.60C600.46 390.87 600.42 391.08 600.40 391.24L600.37 391.49L593.55 391.49C593.74 392.99 594.79 393.97 596.20 393.97C597.27 393.97 598.05 393.35 598.33 392.73L600.19 392.73M598.77 390.16C598.58 388.74 597.62 387.77 596.20 387.77C594.70 387.77 593.81 388.74 593.55 390.16L598.77 390.16" fill="#EAEAEA"/><path d="M602.32 386.44L603.91 386.44L604.09 387.50L604.18 387.50C604.48 387.16 605.20 386.26 606.92 386.26C609.24 386.26 611.00 388.03 611.00 390.87C611.00 393.70 609.24 395.47 606.92 395.47C605.22 395.47 604.44 394.59 604.18 394.23L604.09 394.23L604.09 398.84L602.32 398.84L602.32 386.44M609.22 390.87C609.22 389.02 608.07 387.85 606.66 387.85C605.24 387.85 604.09 389.02 604.09 390.87C604.09 392.71 605.24 393.88 606.66 393.88C608.07 393.88 609.22 392.71 609.22 390.87" fill="#EAEAEA"/><path d="M612.86 386.44L614.63 386.44L614.63 389.98L618.79 389.98L618.79 386.44L620.56 386.44L620.56 395.29L618.79 395.29L618.79 391.66L614.63 391.66L614.63 395.29L612.86 395.29L612.86 386.44" fill="#EAEAEA"/><path d="M622.86 386.44L624.63 386.44L624.63 389.27L626.94 389.27C628.80 389.27 630.04 390.51 630.04 392.28C630.04 394.05 628.80 395.29 626.94 395.29L622.86 395.29L622.86 386.44M626.76 393.79C627.66 393.79 628.27 393.19 628.27 392.28C628.27 391.38 627.66 390.78 626.76 390.78L624.63 390.78L624.63 393.79L626.76 393.79M631.19 386.44H632.96V395.29H631.19Z" fill="#EAEAEA"/><path d="M643.23 392.73C642.81 393.88 641.55 395.47 639.25 395.47C636.68 395.47 634.82 393.61 634.82 390.87C634.82 388.12 636.68 386.26 639.25 386.26C641.64 386.26 643.50 388.12 643.50 390.60C643.50 390.87 643.46 391.08 643.45 391.24L643.41 391.49L636.59 391.49C636.79 392.99 637.83 393.97 639.25 393.97C640.31 393.97 641.09 393.35 641.37 392.73L643.23 392.73M641.82 390.16C641.62 388.74 640.67 387.77 639.25 387.77C637.74 387.77 636.86 388.74 636.59 390.16L641.82 390.16" fill="#EAEAEA"/><path d="M540.18 386.41L541.95 386.41L541.95 392.81L542.31 392.81L545.33 386.41L547.90 386.41L547.90 395.29L546.13 395.29L546.13 388.90L545.77 388.90L542.75 395.29L540.18 395.29L540.18 386.41" fill="#EAEAEA"/></svg>